<?xml version="1.0" encoding="UTF-8"?>
<svg xmlns="http://www.w3.org/2000/svg" xmlns:xlink="http://www.w3.org/1999/xlink" width="px" height="px" viewBox="0 0 1875 1875" version="1.1">
<g id="surface1">
<path style=" stroke:none;fill-rule:nonzero;fill:rgb(13.72549%,74.509804%,78.039216%);fill-opacity:1;" d="M 1875 937.5 C 1875 1455.265625 1455.265625 1875 937.5 1875 C 419.734375 1875 0 1455.265625 0 937.5 C 0 419.734375 419.734375 0 937.5 0 C 1455.265625 0 1875 419.734375 1875 937.5 Z M 1875 937.5 "/>
<path style=" stroke:none;fill-rule:nonzero;fill:rgb(100%,100%,100%);fill-opacity:1;" d="M 959.328125 953.304688 C 986.746094 929.21875 1009.003906 906.53125 1038.355469 894.167969 C 1055.5625 886.964844 1074.59375 876.75 1090.9375 892.554688 C 1107.28125 908.359375 1096.957031 925.671875 1092.011719 942.660156 C 1082.121094 976.746094 1072.121094 1010.9375 1063.085938 1045.238281 C 1060.398438 1055.238281 1055.882812 1066.742188 1066.097656 1075.667969 C 1076.3125 1084.59375 1089.109375 1078.679688 1099.214844 1073.519531 C 1136.632812 1054.378906 1167.0625 1031.691406 1162.332031 981.371094 C 1159.535156 951.261719 1162.332031 919.222656 1190.179688 897.714844 C 1200.933594 889.222656 1213.945312 879.328125 1227.597656 888.792969 C 1241.253906 898.253906 1231.46875 910.296875 1227.597656 921.050781 C 1214.390625 961.597656 1210.710938 1004.648438 1216.847656 1046.851562 C 1218.246094 1056.3125 1216.847656 1069.96875 1225.554688 1073.410156 C 1237.492188 1077.925781 1242.867188 1062.65625 1250.5 1056.421875 C 1258.136719 1050.183594 1263.296875 1041.367188 1269.964844 1034.054688 C 1287.597656 1014.808594 1297.273438 999.433594 1273.835938 973.089844 C 1246.632812 942.660156 1254.800781 883.09375 1281.574219 854.8125 C 1296.652344 836.679688 1321.617188 830.191406 1343.617188 838.6875 C 1366.949219 847.179688 1374.585938 867.285156 1375.230469 890.835938 C 1375.875 917.285156 1364.476562 940.511719 1355.550781 966.101562 C 1381.574219 972.660156 1397.703125 958.035156 1412.324219 942.230469 C 1447.59375 903.953125 1488.453125 879.652344 1542.644531 885.351562 C 1581.890625 889.4375 1604.363281 910.617188 1602.320312 941.476562 C 1600.753906 955.347656 1592.554688 967.589844 1580.328125 974.324219 C 1568.105469 981.054688 1553.375 981.4375 1540.816406 975.347656 C 1528.558594 968.789062 1530.0625 962.769531 1540.816406 956.53125 C 1549.359375 952.828125 1553.691406 943.238281 1550.816406 934.382812 C 1547.351562 923.914062 1537.84375 916.628906 1526.839844 915.996094 C 1512.03125 913.792969 1496.9375 917.164062 1484.472656 925.457031 C 1445.121094 950.617188 1423.078125 1020.507812 1441.464844 1063.085938 C 1452.214844 1088.679688 1472.214844 1093.515625 1492.96875 1075.34375 C 1504.417969 1064.375 1513.050781 1050.800781 1518.128906 1035.777344 C 1521.164062 1026.414062 1525.46875 1017.515625 1530.925781 1009.324219 C 1540.707031 996.316406 1554.257812 984.808594 1571.246094 991.800781 C 1588.234375 998.789062 1579.523438 1016.421875 1576.730469 1028.359375 C 1566.730469 1069.753906 1558.234375 1110.074219 1593.289062 1144.914062 C 1595.160156 1146.625 1596.226562 1149.042969 1596.226562 1151.578125 C 1596.226562 1154.117188 1595.160156 1156.535156 1593.289062 1158.246094 C 1588.9375 1162.511719 1582.324219 1163.46875 1576.945312 1160.613281 C 1552.390625 1152 1532.273438 1133.972656 1521.03125 1110.503906 C 1517.484375 1102.765625 1515.976562 1091.472656 1503.398438 1102.550781 C 1480.957031 1125.546875 1445.019531 1128.523438 1419.097656 1109.539062 C 1388.5625 1089.96875 1377.59375 1060.613281 1380.390625 1025.453125 C 1380.929688 1018.574219 1381.789062 1011.90625 1382.648438 1003.949219 C 1347.488281 1006.851562 1318.886719 1014.703125 1298.78125 1046.960938 C 1281.339844 1073.613281 1257.59375 1095.550781 1229.640625 1110.828125 C 1192.976562 1132.332031 1178.675781 1125.667969 1168.785156 1085.34375 C 1167.386719 1079.753906 1166.203125 1074.59375 1164.050781 1063.839844 C 1140.234375 1085.167969 1112.964844 1102.292969 1083.410156 1114.484375 C 1027.820312 1134.269531 995.5625 1108.785156 1003.734375 1049.96875 C 1008.777344 1019.761719 1017.105469 990.199219 1028.574219 961.800781 C 1031.152344 954.8125 1037.390625 946.210938 1028.574219 940.296875 C 1022.121094 936.210938 1015.347656 943.089844 1010.292969 947.390625 C 975.992188 976.53125 945.78125 1008.789062 935.886719 1054.914062 C 933.589844 1068.515625 929.691406 1081.800781 924.273438 1094.484375 C 917.554688 1111.933594 899.824219 1122.574219 881.265625 1120.289062 C 861.910156 1116.851562 874.382812 1097.066406 869.007812 1084.914062 C 848.363281 1095.667969 828.578125 1106.417969 808.148438 1115.773438 C 793.417969 1122.546875 774.171875 1127.925781 763.417969 1115.238281 C 745.460938 1093.730469 733.3125 1101.152344 714.386719 1113.195312 C 686.753906 1130.828125 655.035156 1123.300781 629.980469 1094.164062 C 617.292969 1079.429688 610.734375 1080.398438 598.476562 1093.515625 C 573.65625 1119.125 544.167969 1139.746094 511.597656 1154.269531 C 383.753906 1215.019531 258.058594 1146.847656 250.960938 1005.992188 C 242.574219 846.964844 310.207031 720.410156 443.105469 632.132812 C 477.871094 607.988281 521.628906 600.6875 562.347656 612.242188 C 610.992188 624.957031 643.921875 670.210938 641.058594 720.410156 C 637.839844 768.335938 603.953125 808.664062 557.296875 820.085938 C 549.660156 821.804688 539.769531 824.816406 535.792969 817.609375 C 529.769531 807.933594 539.339844 801.375 545.898438 796.105469 C 581.8125 765.785156 587.941406 726.324219 581.167969 682.992188 C 574.714844 642.5625 545.898438 626.21875 507.511719 640.949219 C 479.960938 652.382812 455.65625 670.445312 436.761719 693.527344 C 373.261719 763.695312 333.558594 852.132812 323.324219 946.210938 C 318.148438 986.824219 325.382812 1028.058594 344.074219 1064.484375 C 371.386719 1116.632812 417.730469 1139.753906 474.933594 1126.203125 C 520.195312 1114.890625 561.738281 1091.988281 595.464844 1059.753906 C 605.015625 1049.769531 610.132812 1036.359375 609.660156 1022.550781 C 617.507812 940.832031 688.152344 879.542969 767.074219 885.566406 C 786.113281 886.15625 804.246094 893.824219 817.933594 907.070312 C 831.265625 919.539062 835.273438 939.066406 827.933594 955.777344 C 820.300781 974.273438 803.308594 980.292969 784.0625 979.328125 C 775.886719 980.214844 767.8125 976.945312 762.558594 970.617188 C 755.460938 959.863281 769.011719 959.113281 773.3125 953.734375 C 785.355469 938.683594 778.578125 920.726562 757.933594 916.53125 C 737.136719 911.863281 715.4375 918.765625 701.164062 934.597656 C 671.507812 964.710938 658.074219 1007.207031 665.035156 1048.894531 C 667.183594 1064.808594 673.960938 1080.398438 691.484375 1085.128906 C 709.011719 1089.859375 720.410156 1076.742188 731.160156 1064.484375 C 739.121094 1054.316406 744.871094 1042.597656 748.042969 1030.078125 C 750.617188 1018.3125 757.003906 1007.730469 766.214844 999.972656 C 776.96875 991.691406 788.792969 984.917969 801.480469 992.335938 C 814.171875 999.757812 806.429688 1012.230469 806.429688 1022.550781 C 806.429688 1041.476562 786 1063.519531 811.265625 1078.035156 C 824.816406 1085.773438 879.4375 1044.59375 883.738281 1025.238281 C 890.511719 994.378906 895.996094 963.199219 902.125 932.230469 C 902.878906 921.316406 907.011719 910.90625 913.953125 902.445312 C 924.648438 890.25 941.785156 885.964844 956.960938 891.695312 C 973.199219 898.46875 965.132812 913.199219 963.519531 925.671875 C 962.660156 933.089844 961.371094 940.617188 959.328125 953.304688 Z M 1322.542969 881.695312 C 1319.746094 874.167969 1315.230469 866.855469 1305.984375 867.824219 C 1296.738281 868.792969 1294.050781 877.285156 1293.296875 885.242188 C 1290.894531 909.140625 1300.042969 932.75 1317.917969 948.789062 C 1328.074219 927.863281 1329.730469 903.816406 1322.542969 881.695312 Z M 1322.542969 881.695312 "/>
</g>
</svg>
