<?xml version="1.0" encoding="UTF-8"?>
<svg xmlns="http://www.w3.org/2000/svg" xmlns:xlink="http://www.w3.org/1999/xlink" width="px" height="px" viewBox="0 0 1875 1371" version="1.1">
<g id="surface1">
<path style=" stroke:none;fill-rule:nonzero;fill:rgb(34.509804%,39.607843%,94.901961%);fill-opacity:1;" d="M 1559.917969 116.164062 C 1762.960938 414.691406 1863.234375 751.425781 1825.75 1139.082031 C 1825.59375 1140.722656 1824.738281 1142.230469 1823.390625 1143.21875 C 1669.632812 1256.121094 1520.660156 1324.640625 1373.777344 1370.082031 C 1371.433594 1370.792969 1368.894531 1369.933594 1367.460938 1367.945312 C 1333.527344 1320.730469 1302.695312 1270.953125 1275.683594 1218.683594 C 1274.132812 1215.601562 1275.546875 1211.894531 1278.738281 1210.679688 C 1327.707031 1192.230469 1374.269531 1170.117188 1419.058594 1143.9375 C 1422.585938 1141.871094 1422.8125 1136.8125 1419.554688 1134.386719 C 1410.046875 1127.328125 1400.632812 1119.914062 1391.621094 1112.496094 C 1389.933594 1111.125 1387.664062 1110.855469 1385.753906 1111.777344 C 1094.976562 1246.054688 776.449219 1246.054688 482.234375 1111.777344 C 480.324219 1110.925781 478.054688 1111.214844 476.414062 1112.566406 C 467.425781 1119.980469 457.984375 1127.328125 448.570312 1134.386719 C 445.3125 1136.8125 445.582031 1141.871094 449.132812 1143.9375 C 493.917969 1169.625 540.484375 1192.230469 589.382812 1210.769531 C 592.554688 1211.984375 594.058594 1215.601562 592.484375 1218.683594 C 566.058594 1271.019531 535.226562 1320.796875 500.660156 1368.015625 C 499.15625 1369.925781 496.683594 1370.800781 494.347656 1370.082031 C 348.160156 1324.640625 199.1875 1256.121094 45.429688 1143.21875 C 44.148438 1142.230469 43.226562 1140.65625 43.09375 1139.015625 C 11.765625 803.699219 75.609375 464.179688 308.675781 116.097656 C 309.238281 115.175781 310.09375 114.457031 311.082031 114.027344 C 425.757812 61.398438 548.617188 22.675781 677.027344 0.5625 C 679.367188 0.203125 681.703125 1.28125 682.917969 3.351562 C 698.78125 31.441406 716.917969 67.464844 729.1875 96.90625 C 864.542969 76.230469 1002.007812 76.230469 1140.195312 96.90625 C 1152.464844 68.09375 1169.96875 31.441406 1185.769531 3.351562 C 1186.921875 1.246094 1189.296875 0.121094 1191.65625 0.5625 C 1320.132812 22.746094 1442.992188 61.464844 1557.582031 114.027344 C 1558.59375 114.457031 1559.425781 115.175781 1559.917969 116.164062 Z M 798 753.71875 C 799.414062 654.589844 727.144531 572.566406 636.421875 572.566406 C 546.4375 572.566406 474.863281 653.871094 474.863281 753.71875 C 474.863281 853.542969 547.855469 934.851562 636.421875 934.851562 C 726.421875 934.851562 798 853.542969 798 753.71875 Z M 1395.371094 753.71875 C 1396.789062 654.589844 1324.515625 572.566406 1233.816406 572.566406 C 1143.8125 572.566406 1072.234375 653.871094 1072.234375 753.71875 C 1072.234375 853.542969 1145.226562 934.851562 1233.816406 934.851562 C 1324.515625 934.851562 1395.371094 853.542969 1395.371094 753.71875 Z M 1395.371094 753.71875 "/>
</g>
</svg>
