<?xml version="1.0" encoding="UTF-8"?>
<svg xmlns="http://www.w3.org/2000/svg" xmlns:xlink="http://www.w3.org/1999/xlink" width="px" height="px" viewBox="0 0 90 89" version="1.1">
<g id="surface1">
<path style=" stroke:none;fill-rule:nonzero;fill:rgb(33.333333%,34.509804%,68.627451%);fill-opacity:1;" d="M 75.992188 33.992188 C 76.726562 34.730469 77.589844 35.316406 78.546875 35.722656 C 80.535156 36.5625 82.78125 36.5625 84.773438 35.722656 C 86.699219 34.902344 88.230469 33.363281 89.046875 31.429688 C 89.882812 29.425781 89.882812 27.167969 89.046875 25.164062 C 88.226562 23.230469 86.699219 21.6875 84.773438 20.867188 C 82.785156 20.027344 80.539062 20.027344 78.546875 20.867188 C 76.621094 21.691406 75.089844 23.230469 74.273438 25.164062 C 73.4375 27.164062 73.4375 29.421875 74.273438 31.429688 C 74.679688 32.382812 75.265625 33.257812 75.992188 33.992188 Z M 73.648438 41.46875 L 73.648438 65.730469 L 77.667969 65.730469 C 79.050781 65.722656 80.429688 65.59375 81.785156 65.335938 C 83.148438 65.09375 84.464844 64.632812 85.679688 63.96875 C 86.828125 63.34375 87.820312 62.457031 88.585938 61.390625 C 89.386719 60.210938 89.785156 58.800781 89.730469 57.367188 L 89.730469 41.46875 Z M 60.621094 31.296875 C 61.6875 31.304688 62.746094 31.089844 63.730469 30.664062 C 65.652344 29.839844 67.183594 28.304688 68 26.367188 C 68.832031 24.367188 68.832031 22.109375 67.996094 20.105469 C 67.175781 18.167969 65.648438 16.628906 63.722656 15.808594 C 62.738281 15.382812 61.679688 15.167969 60.609375 15.175781 C 59.542969 15.167969 58.492188 15.382812 57.515625 15.808594 C 56.785156 16.121094 56.558594 16.53125 55.554688 17.019531 L 55.554688 29.453125 C 56.5625 29.945312 56.785156 30.351562 57.515625 30.664062 C 58.496094 31.09375 59.550781 31.304688 60.621094 31.296875 Z M 55.554688 72.144531 C 56.5625 72.363281 56.921875 72.535156 57.636719 72.632812 C 58.417969 72.746094 59.207031 72.804688 59.996094 72.808594 C 61.210938 72.800781 62.429688 72.671875 63.621094 72.414062 C 64.835938 72.167969 66 71.710938 67.058594 71.066406 C 68.101562 70.421875 68.976562 69.546875 69.621094 68.507812 C 70.335938 67.292969 70.683594 65.894531 70.632812 64.488281 L 70.632812 36.414062 L 55.554688 36.414062 Z M 0.261719 79.882812 L 52.535156 88.984375 L 52.535156 0.015625 L 0.261719 9.117188 Z M 0.261719 79.882812 "/>
<path style=" stroke:none;fill-rule:nonzero;fill:rgb(100%,100%,100%);fill-opacity:1;" d="M 38.460938 27.3125 L 14.335938 28.789062 L 14.335938 34.386719 L 23.382812 34.019531 L 23.382812 59.96875 L 29.414062 60.324219 L 29.414062 33.78125 L 38.460938 33.378906 Z M 38.460938 27.3125 "/>
</g>
</svg>
