<?xml version="1.0" encoding="UTF-8"?>
<svg xmlns="http://www.w3.org/2000/svg" xmlns:xlink="http://www.w3.org/1999/xlink" width="px" height="px" viewBox="0 0 1875 1875" version="1.1">
<g id="surface1">
<path style=" stroke:none;fill-rule:nonzero;fill:rgb(20.392157%,66.666667%,87.45098%);fill-opacity:1;" d="M 937.5 1875 C 1455.265625 1875 1875 1455.265625 1875 937.5 C 1875 419.734375 1455.265625 0 937.5 0 C 419.734375 0 0 419.734375 0 937.5 C 0 1455.265625 419.734375 1875 937.5 1875 Z M 937.5 1875 "/>
<path style=" stroke:none;fill-rule:nonzero;fill:rgb(100%,100%,100%);fill-opacity:1;" d="M 390.175781 929.371094 C 390.175781 929.371094 858.925781 736.996094 1021.496094 669.253906 C 1083.816406 642.160156 1295.160156 555.453125 1295.160156 555.453125 C 1295.160156 555.453125 1392.703125 517.523438 1384.574219 609.644531 C 1381.863281 647.578125 1360.1875 780.34375 1338.515625 923.953125 C 1305.996094 1127.167969 1270.773438 1349.347656 1270.773438 1349.347656 C 1270.773438 1349.347656 1265.355469 1411.667969 1219.292969 1422.507812 C 1173.234375 1433.34375 1097.363281 1384.574219 1083.816406 1373.734375 C 1072.976562 1365.609375 880.601562 1243.675781 810.152344 1184.066406 C 791.1875 1167.808594 769.511719 1135.296875 812.859375 1097.363281 C 910.40625 1007.949219 1026.914062 896.859375 1097.363281 826.410156 C 1129.878906 793.894531 1162.390625 718.027344 1026.914062 810.148438 C 834.539062 942.917969 644.871094 1067.558594 644.871094 1067.558594 C 644.871094 1067.558594 601.519531 1094.652344 520.234375 1070.265625 C 438.945312 1045.882812 344.109375 1013.367188 344.109375 1013.367188 C 344.109375 1013.367188 279.085938 972.722656 390.175781 929.371094 Z M 390.175781 929.371094 "/>
</g>
</svg>
