<?xml version="1.0" encoding="UTF-8"?>
<svg xmlns="http://www.w3.org/2000/svg" xmlns:xlink="http://www.w3.org/1999/xlink" width="px" height="px" viewBox="0 0 1872 1875" version="1.1">
<g id="surface1">
<path style=" stroke:none;fill-rule:nonzero;fill:rgb(100%,100%,100%);fill-opacity:1;" d="M 0.175781 1396.679688 L 0.175781 1396.761719 C 1.296875 1438.347656 1.671875 1480.171875 8.65625 1521.492188 C 16.089844 1565.210938 26.714844 1607.84375 46.980469 1647.523438 C 74.382812 1701.230469 111.898438 1746.601562 159.527344 1783.636719 C 193.632812 1810.234375 230.894531 1831.355469 272.140625 1844.675781 C 332.277344 1864.074219 394.324219 1871.507812 457.277344 1871.875 C 496.550781 1872.121094 535.804688 1873.105469 575.097656 1872.941406 C 860.429688 1871.742188 1145.769531 1875 1431.117188 1871.179688 C 1468.976562 1870.667969 1506.222656 1866.046875 1543.386719 1859.25 C 1614.613281 1846.214844 1677.558594 1815.792969 1731.414062 1767.773438 C 1794.179688 1711.796875 1836.527344 1643.277344 1855.648438 1560.589844 C 1868.152344 1506.535156 1871.285156 1451.707031 1871.816406 1396.671875 L 1871.816406 1385.695312 C 1871.816406 1381.441406 1870.199219 450.6875 1870.050781 438.382812 C 1869.636719 404.59375 1867.140625 371.046875 1860.8125 337.796875 C 1853.101562 297.277344 1842.214844 257.789062 1822.816406 221.136719 C 1802.324219 182.398438 1776.660156 147.582031 1744.894531 117.148438 C 1696.273438 70.519531 1640.160156 37.554688 1574.8125 20.109375 C 1515.816406 4.375 1455.625 0.871094 1394.988281 0.929688 C 1394.792969 0.65625 1394.675781 0.335938 1394.652344 0 L 477.003906 0 C 477.003906 0.316406 477.003906 0.621094 476.949219 0.929688 C 442.539062 1.558594 408.078125 1.296875 373.84375 5.542969 C 336.34375 10.203125 299.195312 17.226562 263.703125 30.335938 C 207.792969 51.015625 159.210938 83.226562 117.71875 126.242188 C 70.703125 174.945312 37.546875 231.304688 19.984375 296.917969 C 4.289062 355.457031 0.871094 415.15625 0.789062 475.285156 "/>
<path style=" stroke:none;fill-rule:nonzero;fill:rgb(100%,0%,0%);fill-opacity:1;" d="M 969.148438 1452.53125 L 662.296875 1446.917969 C 562.945312 1444.960938 463.34375 1448.867188 365.941406 1428.605469 C 217.765625 1398.335938 207.269531 1249.914062 196.285156 1125.417969 C 181.152344 950.390625 187.011719 772.1875 215.570312 598.621094 C 231.695312 501.230469 295.152344 443.121094 393.28125 436.796875 C 724.542969 413.847656 1058.007812 416.566406 1388.539062 427.273438 C 1423.445312 428.253906 1458.59375 433.617188 1493.015625 439.726562 C 1662.925781 469.507812 1667.066406 637.703125 1678.082031 779.289062 C 1689.066406 922.339844 1684.429688 1066.121094 1663.433594 1208.195312 C 1646.589844 1325.832031 1614.363281 1424.476562 1478.367188 1434 C 1307.96875 1446.453125 1141.484375 1456.476562 970.609375 1453.285156 C 970.617188 1452.53125 969.632812 1452.53125 969.148438 1452.53125 Z M 788.746094 1154.714844 C 917.15625 1080.988281 1043.113281 1008.488281 1170.789062 935.257812 C 1042.140625 861.527344 916.421875 789.03125 788.746094 715.796875 Z M 788.746094 1154.714844 "/>
</g>
</svg>
